<mxfile host="app.diagrams.net" modified="2023-06-04T17:31:17.638Z" agent="Mozilla/5.0 (Macintosh; Intel Mac OS X 10_15_7) AppleWebKit/537.36 (KHTML, like Gecko) Chrome/113.0.0.0 Safari/537.36" version="21.3.7" etag="whBfsdCz8Dv2sMbf142C" type="github">
  <diagram name="Page-1" id="h-pl4EjH7MotOE5P-YH6">
    <mxGraphModel>
      <root>
        <mxCell id="0" />
        <mxCell id="1" parent="0" />
      </root>
    </mxGraphModel>
  </diagram>
</mxfile>
